<?xml version="1.0" encoding="UTF-8"?>
<svg xmlns="http://www.w3.org/2000/svg" xmlns:xlink="http://www.w3.org/1999/xlink" width="637.7231pt" height="317.6106pt" viewBox="0 0 637.7231 317.6106" version="1.1">
<g id="surface1">
<path style=" stroke:none;fill-rule:nonzero;fill:rgb(92.941284%,10.980225%,14.117432%);fill-opacity:1;" d="M 304.523438 165.226563 L 226.34375 165.226563 L 216.621094 187.035156 C 213.53125 194.339844 212.011719 200.410156 212.011719 205.1875 C 212.011719 211.539063 214.542969 216.203125 219.542969 219.238281 C 222.523438 220.980469 229.828125 222.332031 241.464844 223.230469 L 241.464844 228.960938 L 167.21875 228.960938 L 167.21875 223.230469 C 175.199219 221.992188 181.832031 218.621094 186.945313 213.167969 C 192.117188 207.660156 198.523438 196.308594 206.054688 179.109375 L 285.863281 1 L 289.011719 1 L 369.550781 184.054688 C 377.25 201.589844 383.546875 212.664063 388.492188 217.214844 C 392.257813 220.699219 397.484375 222.667969 404.339844 223.230469 L 404.339844 228.960938 L 296.316406 228.960938 L 296.316406 223.230469 L 300.757813 223.230469 C 309.414063 223.230469 315.539063 221.992188 319.023438 219.519531 C 321.441406 217.777344 322.621094 215.191406 322.621094 211.875 C 322.621094 209.855469 322.339844 207.773438 321.664063 205.636719 C 321.441406 204.683594 319.808594 200.464844 316.71875 193.105469 Z M 299.242188 153.085938 L 265.910156 76.929688 L 231.796875 153.085938 Z M 299.242188 153.085938 "/>
<path style=" stroke:none;fill-rule:nonzero;fill:rgb(92.941284%,10.980225%,14.117432%);fill-opacity:1;" d="M 404.070313 18.199219 L 404.070313 74.851563 L 367.652344 74.851563 L 367.652344 91.039063 L 404.070313 91.039063 L 404.070313 186.191406 C 404.070313 195.128906 403.679688 200.859375 402.835938 203.445313 C 402.046875 206.03125 400.585938 208.109375 398.507813 209.683594 C 396.429688 211.316406 394.519531 212.101563 392.773438 212.101563 C 385.636719 212.101563 378.949219 206.707031 372.597656 195.914063 L 367.652344 199.511719 C 376.53125 220.476563 390.976563 230.984375 410.929688 230.984375 C 420.707031 230.984375 428.96875 228.289063 435.714844 222.835938 C 442.457031 217.382813 446.785156 211.316406 448.640625 204.625 C 449.707031 200.859375 450.269531 190.742188 450.269531 174.277344 L 450.269531 91.039063 L 470.503906 91.039063 L 470.503906 85.25 C 456.621094 75.46875 444.820313 65.183594 435.039063 54.394531 C 425.316406 43.601563 416.773438 31.519531 409.523438 18.199219 Z M 404.070313 18.199219 "/>
<path style=" stroke:none;fill-rule:nonzero;fill:rgb(13.725281%,12.156677%,12.548828%);fill-opacity:1;" d="M 34.964844 259.636719 L 18.109375 259.636719 L 1 315.769531 L 14.148438 315.769531 L 17.183594 304.8125 L 35.976563 304.8125 L 39.011719 315.769531 L 52.15625 315.769531 Z M 26.535156 270.761719 L 32.941406 294.277344 L 20.046875 294.277344 Z M 70.617188 315.769531 L 70.617188 256.265625 L 58.480469 257.953125 L 58.480469 315.769531 Z M 101.207031 297.226563 L 101.207031 287.113281 L 79.464844 287.113281 L 79.464844 297.226563 Z M 153.460938 315.769531 L 153.460938 259.636719 L 140.820313 259.636719 L 140.820313 281.972656 L 122.699219 281.972656 L 122.699219 259.636719 L 110.058594 259.636719 L 110.058594 315.769531 L 122.699219 315.769531 L 122.699219 293.179688 L 140.820313 293.179688 L 140.820313 315.769531 Z M 196.359375 315.769531 L 196.359375 289.558594 C 196.359375 278.179688 193.242188 273.882813 179 273.882813 C 174.277344 273.882813 168.125 274.722656 164.25 275.902344 L 165.851563 285.003906 C 169.726563 284.246094 173.351563 283.824219 176.976563 283.824219 C 183.464844 283.824219 184.222656 285.257813 184.222656 289.472656 L 184.222656 292.589844 L 175.375 292.589844 C 166.945313 292.589844 163.152344 295.878906 163.152344 304.136719 C 163.152344 311.132813 166.273438 316.609375 173.855469 316.609375 C 176.636719 316.609375 180.851563 315.769531 185.574219 313.15625 L 186.414063 315.769531 Z M 184.222656 305.738281 C 182.371094 306.582031 180.601563 307.171875 178.070313 307.171875 C 175.710938 307.171875 174.785156 306.242188 174.785156 303.96875 C 174.785156 301.695313 175.796875 301.019531 178.410156 301.019531 L 184.222656 301.019531 Z M 242.546875 315.769531 L 242.546875 288.628906 C 245.15625 287.195313 249.203125 285.679688 251.394531 285.679688 C 253.503906 285.679688 254.34375 286.773438 254.34375 288.628906 L 254.34375 315.769531 L 266.480469 315.769531 L 266.480469 287.027344 C 266.480469 279.105469 264.035156 273.882813 257.042969 273.882813 C 251.394531 273.882813 245.242188 275.566406 240.605469 277.84375 C 239.171875 275.3125 236.730469 273.882813 233.105469 273.882813 C 228.386719 273.882813 221.8125 275.398438 216.753906 277.84375 L 215.492188 274.722656 L 206.472656 274.722656 L 206.472656 315.769531 L 218.609375 315.769531 L 218.609375 288.628906 C 221.222656 287.195313 225.269531 285.679688 227.460938 285.679688 C 229.566406 285.679688 230.410156 286.773438 230.410156 288.628906 L 230.410156 315.769531 Z M 308.957031 315.769531 L 308.957031 289.558594 C 308.957031 278.179688 305.839844 273.882813 291.597656 273.882813 C 286.878906 273.882813 280.726563 274.722656 276.847656 275.902344 L 278.449219 285.003906 C 282.324219 284.246094 285.949219 283.824219 289.574219 283.824219 C 296.0625 283.824219 296.820313 285.257813 296.820313 289.472656 L 296.820313 292.589844 L 287.972656 292.589844 C 279.546875 292.589844 275.75 295.878906 275.75 304.136719 C 275.75 311.132813 278.871094 316.609375 286.457031 316.609375 C 289.238281 316.609375 293.449219 315.769531 298.171875 313.15625 L 299.015625 315.769531 Z M 296.820313 305.738281 C 294.96875 306.582031 293.199219 307.171875 290.667969 307.171875 C 288.308594 307.171875 287.382813 306.242188 287.382813 303.96875 C 287.382813 301.695313 288.394531 301.019531 291.007813 301.019531 L 296.820313 301.019531 Z M 316.964844 301.441406 C 316.964844 311.46875 321.601563 316.609375 329.945313 316.609375 C 334.410156 316.609375 339.722656 314.335938 342.585938 312.480469 L 343.851563 315.769531 L 353.375 315.769531 L 353.375 256.265625 L 341.238281 257.953125 L 341.238281 275.0625 C 338.457031 274.386719 334.160156 273.882813 330.789063 273.882813 C 321.179688 273.882813 316.964844 279.359375 316.964844 289.050781 Z M 341.238281 302.875 C 339.46875 304.390625 336.265625 306.074219 333.484375 306.074219 C 330.28125 306.074219 329.101563 304.304688 329.101563 301.441406 L 329.101563 289.050781 C 329.101563 286.355469 330.28125 284.414063 333.484375 284.414063 C 336.011719 284.414063 339.132813 284.921875 341.238281 285.425781 Z M 420.378906 270.847656 L 420.378906 259.636719 L 377.5625 259.636719 L 377.5625 270.847656 L 392.648438 270.847656 L 392.648438 315.769531 L 405.292969 315.769531 L 405.292969 270.847656 Z M 445.238281 285.34375 L 444.230469 273.882813 C 440.941406 274.554688 435.714844 277 433.1875 278.683594 L 432.34375 274.722656 L 422.230469 274.722656 L 422.230469 315.769531 L 434.367188 315.769531 L 434.367188 290.738281 C 436.980469 288.882813 441.617188 286.773438 445.238281 285.34375 Z M 483.25 315.769531 L 483.25 289.558594 C 483.25 278.179688 480.132813 273.882813 465.886719 273.882813 C 461.167969 273.882813 455.015625 274.722656 451.136719 275.902344 L 452.742188 285.003906 C 456.617188 284.246094 460.242188 283.824219 463.863281 283.824219 C 470.355469 283.824219 471.113281 285.257813 471.113281 289.472656 L 471.113281 292.589844 L 462.265625 292.589844 C 453.835938 292.589844 450.042969 295.878906 450.042969 304.136719 C 450.042969 311.132813 453.160156 316.609375 460.746094 316.609375 C 463.527344 316.609375 467.742188 315.769531 472.460938 313.15625 L 473.304688 315.769531 Z M 471.113281 305.738281 C 469.257813 306.582031 467.488281 307.171875 464.960938 307.171875 C 462.601563 307.171875 461.675781 306.242188 461.675781 303.96875 C 461.675781 301.695313 462.683594 301.019531 465.296875 301.019531 L 471.113281 301.019531 Z M 491.257813 301.441406 C 491.257813 311.46875 495.894531 316.609375 504.234375 316.609375 C 508.703125 316.609375 514.011719 314.335938 516.878906 312.480469 L 518.140625 315.769531 L 527.664063 315.769531 L 527.664063 256.265625 L 515.527344 257.953125 L 515.527344 275.0625 C 512.75 274.386719 508.449219 273.882813 505.078125 273.882813 C 495.46875 273.882813 491.257813 279.359375 491.257813 289.050781 Z M 515.527344 302.875 C 513.757813 304.390625 510.554688 306.074219 507.773438 306.074219 C 504.570313 306.074219 503.390625 304.304688 503.390625 301.441406 L 503.390625 289.050781 C 503.390625 286.355469 504.570313 284.414063 507.773438 284.414063 C 510.304688 284.414063 513.421875 284.921875 515.527344 285.425781 Z M 570.730469 299.5 L 570.730469 290.90625 C 570.730469 281.972656 567.78125 273.882813 554.128906 273.882813 C 540.476563 273.882813 536.515625 281.464844 536.515625 290.3125 L 536.515625 299.921875 C 536.515625 310.035156 541.570313 316.609375 554.886719 316.609375 C 560.621094 316.609375 566.601563 315.347656 570.3125 313.996094 L 568.542969 304.894531 C 564.917969 305.992188 559.859375 306.664063 556.066406 306.664063 C 550.507813 306.664063 548.652344 305.402344 548.652344 300.679688 L 548.652344 299.5 Z M 559.269531 290.398438 L 548.652344 290.398438 L 548.652344 288.628906 C 548.652344 285.765625 550 283.40625 554.214844 283.40625 C 558.429688 283.40625 559.269531 285.765625 559.269531 288.628906 Z M 602.589844 285.34375 L 601.578125 273.882813 C 598.292969 274.554688 593.066406 277 590.539063 278.683594 L 589.695313 274.722656 L 579.582031 274.722656 L 579.582031 315.769531 L 591.71875 315.769531 L 591.71875 290.738281 C 594.332031 288.882813 598.96875 286.773438 602.589844 285.34375 Z M 636.722656 303.546875 C 636.722656 295.371094 635.882813 292.84375 624.164063 290.230469 C 619.277344 289.132813 618.941406 288.796875 618.941406 286.269531 C 618.941406 284.414063 619.785156 283.488281 623.324219 283.488281 C 626.527344 283.488281 630.992188 283.996094 634.617188 284.667969 L 635.710938 275.230469 C 632.085938 274.300781 626.359375 273.882813 623.238281 273.882813 C 610.933594 273.882813 607.5625 277.503906 607.5625 286.183594 C 607.5625 293.855469 608.488281 296.550781 618.433594 298.996094 C 625.007813 300.597656 625.09375 300.933594 625.09375 303.546875 C 625.09375 305.992188 624.503906 307.003906 620.878906 307.003906 C 616.328125 307.003906 611.859375 306.160156 608.488281 305.148438 L 606.550781 314.164063 C 610.597656 315.515625 617.003906 316.609375 621.46875 316.609375 C 633.183594 316.609375 636.722656 311.976563 636.722656 303.546875 "/>
</g>
</svg>
